<?xml version="1.0" standalone="no"?>
<!DOCTYPE svg PUBLIC "-//W3C//DTD SVG 20010904//EN"
 "http://www.w3.org/TR/2001/REC-SVG-20010904/DTD/svg10.dtd">
<svg version="1.0" xmlns="http://www.w3.org/2000/svg"
 width="880.000000pt" height="880.000000pt" viewBox="0 0 880.000000 880.000000"
 preserveAspectRatio="xMidYMid meet">
<metadata>
Created by potrace 1.14, written by Peter Selinger 2001-2017
</metadata>
<g transform="translate(0.000000,880.000000) scale(0.100000,-0.100000)"
fill="#000000" stroke="none">
<path d="M4187 8704 c-1 -1 -45 -5 -97 -8 -135 -10 -237 -22 -340 -41 -14 -3
-41 -7 -60 -10 -19 -4 -55 -11 -80 -16 -25 -6 -52 -12 -60 -14 -14 -3 -85 -21
-120 -30 -8 -2 -15 -4 -15 -6 0 -1 -9 -3 -20 -4 -22 -2 -283 -90 -330 -110
-16 -8 -64 -28 -105 -45 -105 -45 -297 -143 -414 -212 -102 -61 -313 -203
-331 -224 -5 -6 -18 -15 -27 -20 -9 -5 -37 -27 -63 -49 -26 -22 -68 -58 -93
-80 -109 -92 -368 -362 -421 -438 -8 -12 -22 -28 -30 -38 -16 -17 -34 -40 -61
-79 -8 -12 -34 -48 -57 -81 -24 -32 -57 -82 -75 -111 -18 -29 -36 -56 -41 -59
-5 -3 -9 -10 -9 -15 -1 -5 -12 -27 -26 -49 -39 -62 -211 -405 -218 -435 0 -3
-6 -17 -12 -32 -7 -16 -17 -40 -24 -55 -6 -16 -12 -30 -13 -33 -1 -3 -5 -12
-8 -20 -23 -56 -83 -244 -101 -315 -1 -5 -5 -19 -9 -30 -3 -11 -8 -31 -11 -45
-2 -14 -9 -43 -14 -65 -6 -22 -13 -58 -17 -79 -3 -21 -7 -48 -10 -60 -14 -63
-21 -110 -30 -196 -2 -25 -4 -45 -5 -45 -2 0 -6 -55 -15 -185 -5 -77 -10
-5111 -6 -5337 l1 -33 1123 0 1123 0 0 804 c-1 708 1 805 14 808 13 3 2539 2
2565 -1 7 -1 10 -265 10 -804 l0 -802 1128 -3 1127 -2 -3 2717 c-2 1495 -6
2741 -10 2768 -3 28 -8 68 -11 90 -3 22 -8 63 -11 90 -3 28 -10 73 -15 100 -5
28 -12 61 -14 75 -4 21 -16 77 -51 223 -2 10 -7 27 -10 37 -3 10 -8 27 -10 37
-11 49 -85 260 -125 358 -29 70 -153 328 -181 375 -4 8 -32 56 -61 105 -29 50
-56 92 -60 93 -5 2 -8 8 -8 13 0 11 -118 181 -187 269 -59 75 -207 242 -279
314 -97 97 -335 306 -349 306 -3 0 -16 10 -30 22 -42 36 -129 98 -147 104 -10
4 -18 10 -18 15 0 5 -7 9 -15 9 -8 0 -15 5 -15 10 0 6 -5 10 -11 10 -6 0 -25
10 -42 23 -18 12 -41 27 -52 33 -11 6 -45 25 -75 43 -184 106 -482 238 -680
300 -58 19 -112 36 -120 39 -29 10 -247 60 -295 67 -11 2 -20 4 -20 5 0 1 -9
3 -20 4 -24 3 -111 16 -145 21 -33 6 -108 14 -200 21 -67 6 -448 12 -453 8z
m365 -2265 c21 -5 51 -11 66 -13 15 -2 34 -6 42 -9 8 -2 35 -11 60 -18 91 -26
271 -105 278 -121 2 -5 9 -8 16 -8 14 0 140 -86 190 -129 131 -113 247 -268
323 -431 40 -85 79 -192 88 -238 2 -9 4 -17 5 -17 2 0 4 -12 14 -60 17 -81 20
-212 20 -845 l1 -685 -1292 -1 c-1167 0 -1293 1 -1294 15 0 9 -2 306 -2 661
-2 644 2 777 27 885 26 115 44 169 91 271 110 239 293 441 520 575 60 36 171
90 190 93 6 1 15 4 20 8 17 10 198 58 245 64 25 3 46 8 48 9 8 7 308 1 344 -6z"/>
</g>
</svg>
